<svg width="78" height="20" viewBox="0 0 78 20" fill="none" xmlns="http://www.w3.org/2000/svg">
<path d="M0.896578 9.96C0.896578 8.928 1.08858 8.022 1.47258 7.242C1.86858 6.462 2.40258 5.862 3.07458 5.442C3.74658 5.022 4.49658 4.812 5.32458 4.812C5.98458 4.812 6.58458 4.95 7.12458 5.226C7.67658 5.502 8.10858 5.874 8.42058 6.342V1.68H11.4986V15H8.42058V13.56C8.13258 14.04 7.71858 14.424 7.17858 14.712C6.65058 15 6.03258 15.144 5.32458 15.144C4.49658 15.144 3.74658 14.934 3.07458 14.514C2.40258 14.082 1.86858 13.476 1.47258 12.696C1.08858 11.904 0.896578 10.992 0.896578 9.96ZM8.42058 9.978C8.42058 9.21 8.20458 8.604 7.77258 8.16C7.35258 7.716 6.83658 7.494 6.22458 7.494C5.61258 7.494 5.09058 7.716 4.65858 8.16C4.23858 8.592 4.02858 9.192 4.02858 9.96C4.02858 10.728 4.23858 11.34 4.65858 11.796C5.09058 12.24 5.61258 12.462 6.22458 12.462C6.83658 12.462 7.35258 12.24 7.77258 11.796C8.20458 11.352 8.42058 10.746 8.42058 9.978ZM16.8034 6.63C17.1634 6.078 17.6134 5.646 18.1534 5.334C18.6934 5.01 19.2934 4.848 19.9534 4.848V8.106H19.1074C18.3394 8.106 17.7634 8.274 17.3794 8.61C16.9954 8.934 16.8034 9.51 16.8034 10.338V15H13.7254V4.956H16.8034V6.63ZM22.9726 3.912C22.4326 3.912 21.9886 3.756 21.6406 3.444C21.3046 3.12 21.1366 2.724 21.1366 2.256C21.1366 1.776 21.3046 1.38 21.6406 1.068C21.9886 0.743999 22.4326 0.581999 22.9726 0.581999C23.5006 0.581999 23.9326 0.743999 24.2686 1.068C24.6166 1.38 24.7906 1.776 24.7906 2.256C24.7906 2.724 24.6166 3.12 24.2686 3.444C23.9326 3.756 23.5006 3.912 22.9726 3.912ZM24.5026 4.956V15H21.4246V4.956H24.5026ZM31.2512 12.12L33.4292 4.956H36.7052L33.1412 15H29.3432L25.7792 4.956H29.0732L31.2512 12.12ZM39.5488 3.912C39.0088 3.912 38.5648 3.756 38.2168 3.444C37.8808 3.12 37.7128 2.724 37.7128 2.256C37.7128 1.776 37.8808 1.38 38.2168 1.068C38.5648 0.743999 39.0088 0.581999 39.5488 0.581999C40.0768 0.581999 40.5088 0.743999 40.8448 1.068C41.1928 1.38 41.3668 1.776 41.3668 2.256C41.3668 2.724 41.1928 3.12 40.8448 3.444C40.5088 3.756 40.0768 3.912 39.5488 3.912ZM41.0788 4.956V15H38.0008V4.956H41.0788ZM49.4294 4.848C50.6054 4.848 51.5414 5.232 52.2374 6C52.9454 6.756 53.2994 7.8 53.2994 9.132V15H50.2394V9.546C50.2394 8.874 50.0654 8.352 49.7174 7.98C49.3694 7.608 48.9014 7.422 48.3134 7.422C47.7254 7.422 47.2574 7.608 46.9094 7.98C46.5614 8.352 46.3874 8.874 46.3874 9.546V15H43.3094V4.956H46.3874V6.288C46.6994 5.844 47.1194 5.496 47.6474 5.244C48.1754 4.98 48.7694 4.848 49.4294 4.848ZM59.2543 4.812C59.9623 4.812 60.5803 4.956 61.1083 5.244C61.6483 5.532 62.0623 5.91 62.3503 6.378V4.956H65.4283V14.982C65.4283 15.906 65.2423 16.74 64.8703 17.484C64.5103 18.24 63.9523 18.84 63.1963 19.284C62.4523 19.728 61.5223 19.95 60.4063 19.95C58.9183 19.95 57.7123 19.596 56.7883 18.888C55.8643 18.192 55.3363 17.244 55.2043 16.044H58.2463C58.3423 16.428 58.5703 16.728 58.9303 16.944C59.2903 17.172 59.7343 17.286 60.2623 17.286C60.8983 17.286 61.4023 17.1 61.7743 16.728C62.1583 16.368 62.3503 15.786 62.3503 14.982V13.56C62.0503 14.028 61.6363 14.412 61.1083 14.712C60.5803 15 59.9623 15.144 59.2543 15.144C58.4263 15.144 57.6763 14.934 57.0043 14.514C56.3323 14.082 55.7983 13.476 55.4023 12.696C55.0183 11.904 54.8263 10.992 54.8263 9.96C54.8263 8.928 55.0183 8.022 55.4023 7.242C55.7983 6.462 56.3323 5.862 57.0043 5.442C57.6763 5.022 58.4263 4.812 59.2543 4.812ZM62.3503 9.978C62.3503 9.21 62.1343 8.604 61.7023 8.16C61.2823 7.716 60.7663 7.494 60.1543 7.494C59.5423 7.494 59.0203 7.716 58.5883 8.16C58.1683 8.592 57.9583 9.192 57.9583 9.96C57.9583 10.728 58.1683 11.34 58.5883 11.796C59.0203 12.24 59.5423 12.462 60.1543 12.462C60.7663 12.462 61.2823 12.24 61.7023 11.796C62.1343 11.352 62.3503 10.746 62.3503 9.978ZM72.2271 15.144C71.2431 15.144 70.3551 14.934 69.5631 14.514C68.7831 14.094 68.1651 13.494 67.7091 12.714C67.2651 11.934 67.0431 11.022 67.0431 9.978C67.0431 8.946 67.2711 8.04 67.7271 7.26C68.1831 6.468 68.8071 5.862 69.5991 5.442C70.3911 5.022 71.2791 4.812 72.2631 4.812C73.2471 4.812 74.1351 5.022 74.9271 5.442C75.7191 5.862 76.3431 6.468 76.7991 7.26C77.2551 8.04 77.4831 8.946 77.4831 9.978C77.4831 11.01 77.2491 11.922 76.7811 12.714C76.3251 13.494 75.6951 14.094 74.8911 14.514C74.0991 14.934 73.2111 15.144 72.2271 15.144ZM72.2271 12.48C72.8151 12.48 73.3131 12.264 73.7211 11.832C74.1411 11.4 74.3511 10.782 74.3511 9.978C74.3511 9.174 74.1471 8.556 73.7391 8.124C73.3431 7.692 72.8511 7.476 72.2631 7.476C71.6631 7.476 71.1651 7.692 70.7691 8.124C70.3731 8.544 70.1751 9.162 70.1751 9.978C70.1751 10.782 70.3671 11.4 70.7511 11.832C71.1471 12.264 71.6391 12.48 72.2271 12.48Z" fill="url(#paint0_radial_2827_881)"/>
<defs>
<radialGradient id="paint0_radial_2827_881" cx="0" cy="0" r="1" gradientUnits="userSpaceOnUse" gradientTransform="translate(39 8.5) scale(39 6.5)">
<stop stop-color="#8E1383"/>
<stop offset="1" stop-color="#191265"/>
</radialGradient>
</defs>
</svg>
