<svg width="20" height="19" viewBox="0 0 20 19" fill="none" xmlns="http://www.w3.org/2000/svg">
<path d="M13.8894 4.12618L14.9958 7.04924C15.3133 7.88776 15.9868 8.54921 16.8411 8.86089L19.8183 9.94713C20.0606 10.0356 20.0606 10.3717 19.8183 10.4601L16.8411 11.5464C15.987 11.8581 15.3133 12.5193 14.9958 13.358L13.8894 16.2811C13.7994 16.5189 13.457 16.5189 13.3669 16.2811L12.2605 13.358C11.9431 12.5195 11.2696 11.8581 10.4153 11.5464L7.43799 10.4601C7.19578 10.3717 7.19578 10.0356 7.43799 9.94713L10.4153 8.86089C11.2693 8.54921 11.9431 7.88799 12.2605 7.04924L13.3669 4.12618C13.457 3.88839 13.7994 3.88839 13.8894 4.12618Z" fill="white"/>
<path d="M5.12716 0.127268L5.91657 2.21319C6.14303 2.81161 6.62368 3.28351 7.2332 3.50583L9.35781 4.28087C9.53065 4.3439 9.53065 4.58377 9.35781 4.6468L7.2332 5.42183C6.62368 5.64416 6.14303 6.11606 5.91657 6.71448L5.12716 8.8004C5.06297 8.97009 4.81864 8.97009 4.75445 8.8004L3.96504 6.71448C3.73858 6.11606 3.25793 5.64416 2.64841 5.42183L0.523801 4.6468C0.350963 4.58377 0.350963 4.3439 0.523801 4.28087L2.64841 3.50583C3.25793 3.28351 3.73858 2.81161 3.96504 2.21319L4.75445 0.127268C4.81864 -0.0424226 5.06297 -0.0424226 5.12716 0.127268Z" fill="white"/>
<path d="M3.51754 11.9211L4.10425 13.4714C4.27262 13.916 4.62982 14.2667 5.08272 14.432L6.66178 15.0081C6.79017 15.0549 6.79017 15.2332 6.66178 15.28L5.08272 15.856C4.62982 16.0214 4.27262 16.372 4.10425 16.8167L3.51754 18.367C3.46981 18.4931 3.28827 18.4931 3.24053 18.367L2.65382 16.8167C2.48545 16.372 2.12826 16.0214 1.67535 15.856L0.0962953 15.28C-0.0320984 15.2332 -0.0320984 15.0549 0.0962953 15.0081L1.67535 14.432C2.12826 14.2667 2.48545 13.916 2.65382 13.4714L3.24053 11.9211C3.28827 11.795 3.46981 11.795 3.51754 11.9211Z" fill="white"/>
</svg>
