<svg width="20" height="18" viewBox="0 0 20 18" fill="none" xmlns="http://www.w3.org/2000/svg">
<path d="M13.8042 5.33334H15.6407L20 17.309H18.2177L16.9637 13.722H12.2518L10.9493 17.309H9.28137L13.8042 5.33334ZM16.5021 12.4012L14.653 7.1105L12.7314 12.4012H16.5021Z" fill="white"/>
<path d="M12.093 13.6812C9.76745 12.7536 8.3721 11.5942 6.97675 10.4348C5.5814 11.5942 2.32558 13.4493 2.32558 13.4493L1.39535 12.058C3.25582 10.8986 3.72093 10.6667 5.81396 9.04349C5.33442 8.59896 3.02326 6.02899 2.7907 4.63769H4.65117C5.5814 6.72464 6.97675 7.88407 6.97675 7.88407C9.30233 6.02899 9.30233 3.47826 9.30233 3.47826H11.1628C11.1628 3.47826 10.9302 6.49276 8.3721 9.04349C9.53489 10.2029 10.6977 11.1304 12.7907 12.058L12.093 13.6812ZM0 3.47826H13.0233V1.62319H7.67443V0H5.5814V1.62319H0V3.47826Z" fill="white"/>
</svg>
